<svg id="Layer_1" data-name="Layer 1" xmlns="http://www.w3.org/2000/svg" viewBox="0 0 150 75"><defs><style>.cls-1{fill:#33353a;}.cls-2{fill:#d65e47;}</style></defs><title>SVG Artboard 1</title><path class="cls-1" d="M13,32.35h1.76l5.2,15.86L25.34,32.4h2.25L20.82,51.51H19L13.8,36.12,8.57,51.51H6.78L0,32.4H2.33L7.75,48.21Z"/><path class="cls-1" d="M29.82,47.16a4.8,4.8,0,0,0,1.11,1.49,4.49,4.49,0,0,0,1.52.92,5,5,0,0,0,1.76.32,5.31,5.31,0,0,0,2.51-.55,7.63,7.63,0,0,0,1.91-1.43l1.3,1.16A8.44,8.44,0,0,1,37.52,51a7.14,7.14,0,0,1-3.36.72,6.91,6.91,0,0,1-2.72-.53,6.63,6.63,0,0,1-2.22-1.49,7,7,0,0,1-1.52-2.31,7.66,7.66,0,0,1-.57-3,8,8,0,0,1,.51-2.86A7.25,7.25,0,0,1,29,39.19a6.6,6.6,0,0,1,2.13-1.56,6.82,6.82,0,0,1,5.46,0,6.2,6.2,0,0,1,2.06,1.58A7,7,0,0,1,40,41.59a9.78,9.78,0,0,1,.43,2.9v.3a2.16,2.16,0,0,1,0,.35H29.28A5.67,5.67,0,0,0,29.82,47.16Zm8.43-3.56a7.86,7.86,0,0,0-.39-1.82A5.13,5.13,0,0,0,37,40.26a4.21,4.21,0,0,0-1.35-1,4.16,4.16,0,0,0-1.85-.39,4.05,4.05,0,0,0-1.7.36,4.51,4.51,0,0,0-1.37,1,5.24,5.24,0,0,0-1,1.5,6.39,6.39,0,0,0-.48,1.9Z"/><path class="cls-1" d="M56.27,47.45a7.22,7.22,0,0,1-1.5,2.29,6.54,6.54,0,0,1-2.14,1.43,6.39,6.39,0,0,1-4.27.26,5.89,5.89,0,0,1-1.46-.65,6.07,6.07,0,0,1-1.18-1,7.69,7.69,0,0,1-.94-1.14v2.69H42.69V31.59h2.09v8.59a11.9,11.9,0,0,1,1-1.19,6.53,6.53,0,0,1,1.18-1,6.23,6.23,0,0,1,1.45-.68,5.89,5.89,0,0,1,1.78-.25,6.56,6.56,0,0,1,2.45.48A6.67,6.67,0,0,1,54.76,39a6.87,6.87,0,0,1,1.51,2.29,8.66,8.66,0,0,1,0,6.18Zm-2-5.3a5.27,5.27,0,0,0-1.07-1.72,4.72,4.72,0,0,0-1.57-1.09,4.88,4.88,0,0,0-1.9-.38,4.77,4.77,0,0,0-1.89.39,5.35,5.35,0,0,0-1.62,1.1,5,5,0,0,0-1.14,1.7,5.62,5.62,0,0,0-.42,2.21,5.7,5.7,0,0,0,.42,2.22,4.93,4.93,0,0,0,1.14,1.71,5.35,5.35,0,0,0,1.62,1.1,4.77,4.77,0,0,0,1.89.39,5,5,0,0,0,1.91-.37,4.43,4.43,0,0,0,1.57-1,5,5,0,0,0,1.06-1.7,6.26,6.26,0,0,0,.39-2.28A6.07,6.07,0,0,0,54.31,42.15Z"/><path class="cls-1" d="M71.16,51.38V43.76h-7.7v7.62H59.28v-19h4.18v7.51h7.7V32.4h4.17v19Z"/><path class="cls-1" d="M86.34,51.73c-1.12,3-2.31,4.07-4.78,4.07a6.78,6.78,0,0,1-3.66-1l1.39-3a3.69,3.69,0,0,0,1.76.57,1.39,1.39,0,0,0,1.44-1l-5.7-14.58h4.37l3.3,9.89,3.18-9.89h4.28Z"/><path class="cls-1" d="M101.65,51.65a5.57,5.57,0,0,1-4.53-2.17v6.23H93V36.85h4.12v2.09a5.34,5.34,0,0,1,4.53-2.36c3.39,0,6.61,2.65,6.61,7.51v0C108.26,49,105.09,51.65,101.65,51.65Zm2.49-7.56a3.7,3.7,0,0,0-3.55-4c-1.92,0-3.52,1.6-3.52,4v0c0,2.41,1.6,4,3.52,4s3.55-1.57,3.55-4Z"/><path class="cls-1" d="M123.44,45.55H113.33a3.38,3.38,0,0,0,3.55,2.85,4.76,4.76,0,0,0,3.53-1.5L122.77,49a7.68,7.68,0,0,1-13.53-4.8v0c0-4.15,3-7.56,7.18-7.56,4.86,0,7.08,3.76,7.08,7.89v.05C123.5,44.93,123.47,45.17,123.44,45.55Zm-7-5.67c-1.7,0-2.82,1.22-3.14,3.09h6.21C119.24,41.13,118.16,39.88,116.42,39.88Z"/><path class="cls-2" d="M150,34.35l-.21.16a20,20,0,0,1-5.37,2.93,21.09,21.09,0,0,1-6.63.63c-.08,0-.16,0-.29.06.59.32,1.11.65,1.2,1.33,0,.2-.06.21-.33.08q.65.78.33,1.14c-.12-.1-.23-.22-.36-.31a2.91,2.91,0,0,0-1.12-.37,1.93,1.93,0,0,0-1.75.33,22.38,22.38,0,0,1-2.83,2.3,8.61,8.61,0,0,1-4.06,1.21H128a1.29,1.29,0,0,0,1,.74,5.23,5.23,0,0,0,2.26-.06,1.16,1.16,0,0,1,.23,0,3.06,3.06,0,0,1-1.92.92,2.59,2.59,0,0,0,1.55.67,1.58,1.58,0,0,0,1.7-1.14,1.77,1.77,0,0,1,.12-.17c.32.59.08,1.1-.17,1.7.57-.12,1.06-.22,1.54-.35a.54.54,0,0,0,.42-.7,4,4,0,0,1,.42-3.1,2.69,2.69,0,0,1,2.18-.77c1.6,0,3.3.34,4.81-.33a5.27,5.27,0,0,1-2-.72,8.31,8.31,0,0,0,5.21-.43,6,6,0,0,1-2.92-.4.81.81,0,0,1,.31-.06c2,0,4.86-.14,6-2.12a5.87,5.87,0,0,1-1.8.24A4.15,4.15,0,0,0,150,34.35Z"/><path class="cls-2" d="M128.6,42.23l.33,0,.16,0h.06a6.07,6.07,0,0,0,2.42-.28c1.33-.43,3.85-2.09,3.68-3.76-.15-1.4-2.28-3.13-3.13-4.19a23.27,23.27,0,0,1-3.06-4.72,18.05,18.05,0,0,1-1.64-10.14,3,3,0,0,0-1.36.81l0,0a.08.08,0,0,0,0,0l-.2.22,0,.07c-.7.89-1.3,2.45-1,5.16a5.35,5.35,0,0,1-1.56-2.92c0-.2-.09-.4-.13-.61-1.36,2-1,4,0,6a2.57,2.57,0,0,0,.27.52,4,4,0,0,1-1.62-1.13,3.69,3.69,0,0,1-1-1.84c0,.05-.07.07-.08.1a6.14,6.14,0,0,0,3,6.59l.37.25,0,.06a6.66,6.66,0,0,1-3.83-2.38,6.43,6.43,0,0,0,.08.78,4.82,4.82,0,0,0,2.23,3.27,27.94,27.94,0,0,0,3.69,1.57.22.22,0,0,0,0,.08,9.44,9.44,0,0,1-3.08-.46l.26.4a7.71,7.71,0,0,0,3.38,2.34,23.28,23.28,0,0,1,2.56,1c.64.37,1.49,1.36.86,2h0a1.46,1.46,0,0,1-.24.17h0a5.59,5.59,0,0,1-2.81.43,3.9,3.9,0,0,0,.35.19h0a6.37,6.37,0,0,0,.69.25l.19,0Z"/></svg>