<svg id="Group_1_copy_2" data-name="Group 1 copy 2" xmlns="http://www.w3.org/2000/svg" width="399.844" height="90" viewBox="0 0 399.844 90">
  <metadata><?xpacket begin="﻿" id="W5M0MpCehiHzreSzNTczkc9d"?>
<x:xmpmeta xmlns:x="adobe:ns:meta/" x:xmptk="Adobe XMP Core 5.6-c142 79.160924, 2017/07/13-01:06:39        ">
   <rdf:RDF xmlns:rdf="http://www.w3.org/1999/02/22-rdf-syntax-ns#">
      <rdf:Description rdf:about=""/>
   </rdf:RDF>
</x:xmpmeta>
                                                                                                    
                                                                                                    
                                                                                                    
                                                                                                    
                                                                                                    
                                                                                                    
                                                                                                    
                                                                                                    
                                                                                                    
                                                                                                    
                                                                                                    
                                                                                                    
                                                                                                    
                                                                                                    
                                                                                                    
                                                                                                    
                                                                                                    
                                                                                                    
                                                                                                    
                                                                                                    
                           
<?xpacket end="w"?></metadata>
<defs>
    <style>
      .cls-1 {
        fill: #434343;
      }

      .cls-1, .cls-3 {
        fill-rule: evenodd;
      }

      .cls-2, .cls-3 {
        fill: #04d39f;
      }
    </style>
  </defs>
  <path id="ciyashop_copy" data-name="ciyashop copy" class="cls-1" d="M26.6,16.932a28.433,28.433,0,0,0-13.754,3.259,22.825,22.825,0,0,0-9.361,9.441A30.066,30.066,0,0,0,.14,44.152,29.784,29.784,0,0,0,3.483,58.625a23.2,23.2,0,0,0,9.361,9.441A28.089,28.089,0,0,0,26.6,71.373q10.22,0,17.05-5.559A24.305,24.305,0,0,0,52.2,50.67H37.964a11.032,11.032,0,0,1-3.916,6.661,12,12,0,0,1-7.737,2.444A11.521,11.521,0,0,1,17.38,55.8Q13.8,51.822,13.8,44.152T17.38,32.507a11.526,11.526,0,0,1,8.931-3.978,12,12,0,0,1,7.737,2.444,11.037,11.037,0,0,1,3.916,6.661H52.2a24.314,24.314,0,0,0-8.549-15.144q-6.83-5.557-17.05-5.559h0ZM54.583,17.6V70.7H68.051V17.6H54.583Zm14.464,0L91.611,68.237,82.558,90.005h13.56l30.524-72.4H111.838L98.466,53.641,84.043,17.6h-15Zm75.607-.671a22.679,22.679,0,0,0-12.035,3.259,21.98,21.98,0,0,0-8.357,9.441,32.833,32.833,0,0,0-3.009,14.521,32.834,32.834,0,0,0,3.009,14.521,21.971,21.971,0,0,0,8.357,9.441,22.665,22.665,0,0,0,12.035,3.259,20.055,20.055,0,0,0,11.462-3.211,17.462,17.462,0,0,0,6.782-8.578V70.7H176.27V17.6H162.9V28.625a17.216,17.216,0,0,0-6.782-8.53,20.288,20.288,0,0,0-11.462-3.163h0Zm4.2,11.789a13.305,13.305,0,0,1,10.077,4.169Q162.9,37.06,162.9,44.152q0,7-3.964,11.166a14.439,14.439,0,0,1-20.2.1q-3.821-4.073-3.82-11.262t3.82-11.31a13.152,13.152,0,0,1,10.125-4.121h0Zm50.719-11.789q-9.266,0-14.519,4.313A13.828,13.828,0,0,0,179.8,32.459q0,5.369,2.627,8.435a15.3,15.3,0,0,0,6.3,4.457,74.341,74.341,0,0,0,9.6,2.732q4.3,1.056,6.639,1.821a10.654,10.654,0,0,1,3.916,2.2,4.824,4.824,0,0,1,1.576,3.738,5.665,5.665,0,0,1-1.815,4.361,7.469,7.469,0,0,1-5.253,1.677,12.432,12.432,0,0,1-7.737-2.252,8.742,8.742,0,0,1-3.439-6.182h-12.9q1.337,8.626,7.546,13.275T203.4,71.373q8.976,0,14.279-4.217a13.416,13.416,0,0,0,5.3-11.022q0-5.463-2.723-8.674a16.218,16.218,0,0,0-6.5-4.7,67.83,67.83,0,0,0-9.79-2.828q-4.3-1.054-6.591-1.821a10.97,10.97,0,0,1-3.821-2.109,4.486,4.486,0,0,1-1.528-3.546,5.5,5.5,0,0,1,1.91-4.409,8,8,0,0,1,5.349-1.629,10.316,10.316,0,0,1,6.973,2.3,10.545,10.545,0,0,1,3.439,6.134h12.608A21.2,21.2,0,0,0,215.05,21.82q-5.828-4.888-15.474-4.888h0Zm57.786-.1a20.53,20.53,0,0,0-11.128,3.019,16.9,16.9,0,0,0-6.925,8.387V-0.224H225.842V70.7h13.467V42.523q0-7,3.439-10.735a11.858,11.858,0,0,1,9.17-3.738,11.531,11.531,0,0,1,8.883,3.5q3.246,3.5,3.247,9.824V70.7h13.373V39.839q0-10.926-5.445-16.965t-14.614-6.038h0Zm49.19,0.1a29.274,29.274,0,0,0-13.9,3.259,23.8,23.8,0,0,0-9.695,9.441,28.76,28.76,0,0,0-3.534,14.521,28.492,28.492,0,0,0,3.534,14.473,24.205,24.205,0,0,0,9.695,9.441,30.858,30.858,0,0,0,27.8,0,24.205,24.205,0,0,0,9.695-9.441,28.5,28.5,0,0,0,3.535-14.473,28.77,28.77,0,0,0-3.535-14.521,23.8,23.8,0,0,0-9.695-9.441,29.27,29.27,0,0,0-13.9-3.259h0Zm0,11.693A12.9,12.9,0,0,1,316.1,32.6q3.916,3.978,3.917,11.549T316.1,55.7a13.457,13.457,0,0,1-19.1,0q-3.918-3.976-3.916-11.55T297,32.6a12.9,12.9,0,0,1,9.552-3.978h0Zm61.13-11.693A20.051,20.051,0,0,0,356.268,20.1a17.3,17.3,0,0,0-6.734,8.53V17.6H336.066V89.695h13.468V59.584a17.549,17.549,0,0,0,6.734,8.578,19.822,19.822,0,0,0,11.414,3.211,22.668,22.668,0,0,0,12.035-3.259,21.986,21.986,0,0,0,8.358-9.441,32.834,32.834,0,0,0,3.009-14.521c0-5.559-2.39-12.245-2.39-12.245l-9.66.005s2.045-5.268,3.889-8.83a18.311,18.311,0,0,0-3.206-2.892,22.681,22.681,0,0,0-12.035-3.259h0Zm-4.2,11.789A13.153,13.153,0,0,1,373.6,32.843q3.821,4.122,3.821,11.31T373.6,55.414a14.438,14.438,0,0,1-20.2-.1q-3.965-4.169-3.964-11.166,0-7.092,3.964-11.262a13.3,13.3,0,0,1,10.077-4.169h0Zm10.335,10.7h0Z" transform="translate(-0.125)"/>
  <ellipse class="cls-2" cx="60.906" cy="81.313" rx="8.25" ry="8.281"/>
  <path id="Polygon_1" data-name="Polygon 1" class="cls-3" d="M382.267,29.8l8.511-15.6,9.2,15.1Z" transform="translate(-0.125)"/>
</svg>
